<svg width="19" height="7" viewBox="0 0 19 7" fill="none" xmlns="http://www.w3.org/2000/svg">
<path d="M9.5 0C11.3434 0 12.8378 1.4944 12.8378 3.33784C12.8378 5.18127 11.3434 6.67568 9.5 6.67568C7.65656 6.67568 6.16216 5.18127 6.16216 3.33784C6.16216 1.4944 7.65656 0 9.5 0ZM2.05405 1.28378C3.18848 1.28378 4.10811 2.20342 4.10811 3.33784C4.10811 4.47226 3.18848 5.39189 2.05405 5.39189C0.919631 5.39189 0 4.47226 0 3.33784C0 2.20342 0.919631 1.28378 2.05405 1.28378ZM16.9459 1.28378C18.0804 1.28378 19 2.20342 19 3.33784C19 4.47226 18.0804 5.39189 16.9459 5.39189C15.8115 5.39189 14.8919 4.47226 14.8919 3.33784C14.8919 2.20342 15.8115 1.28378 16.9459 1.28378Z" fill="white"/>
</svg>
