<svg width="42" height="30" viewBox="0 0 42 30" fill="none" xmlns="http://www.w3.org/2000/svg">
<path d="M27.5098 14.4542C24.2042 13.4827 21.1265 15.3062 20.8909 18.34L21.0201 18.4674L21.1113 18.4116V18.3878L21.1265 18.3718C21.8864 16.851 24.3485 14.3746 27.4566 14.709L27.5782 14.5736L27.5098 14.4542ZM20.2982 18.3639L20.3134 18.4037L20.4198 18.4594L20.5414 18.332C20.3058 15.2982 17.2281 13.4668 13.9529 14.4462H13.9377L13.8617 14.5736L13.9833 14.709C17.0762 14.3666 19.5383 16.843 20.2982 18.3639Z" fill="white"/>
<path d="M12.2358 18.3466L12.1598 18.458L12.289 18.5854C16.195 17.8051 18.8927 19.7082 20.6101 21.9377L20.6633 21.9776L20.7013 21.9935L20.7393 21.9776H20.7544L20.8076 21.9377C22.5099 19.7002 25.2227 17.8051 29.1287 18.5854L29.2503 18.458L29.1743 18.3466C26.3702 16.8894 21.8715 17.5503 20.762 21.1654H20.7468L20.7089 21.2052L20.6709 21.1654H20.6557C19.5538 17.5503 15.0551 16.8974 12.2358 18.3466Z" fill="white"/>
<path d="M37.2462 24.3274C30.4602 22.2491 30.9845 7.08816 22.0404 7.62166L21.858 7.82073L22.0404 8.01184C29.4875 8.46571 28.4996 24.407 37.2462 24.7096L37.4286 24.5026L37.2462 24.3274ZM20.6041 11.9613L20.7105 12.033L20.8321 11.9613C21.0905 11.4278 21.2652 10.3847 21.2652 9.11865C21.2652 6.16449 20.9005 2.37425 20.8473 2.1274L20.7257 2L20.6041 2.1274C20.5661 2.37425 20.1862 6.14856 20.1862 9.11865C20.171 10.3688 20.3381 11.4278 20.6041 11.9613ZM19.3807 8.01184L19.563 7.82073L19.3807 7.62963C10.4441 7.08816 10.9684 22.2651 4.18238 24.3274L4 24.5185L4.18238 24.7255C12.9214 24.407 11.9411 8.46571 19.3807 8.01184Z" fill="white"/>
<path d="M32.4726 23.4599C27.3204 19.2954 22.0162 21.8275 20.7927 25.0843L20.7015 25.1639L20.6255 25.0843C19.4097 21.8435 14.0979 19.3034 8.94565 23.4599L8.89246 23.5555L9.02164 23.6908L9.09003 23.6669C14.7894 21.2781 18.8549 23.5395 20.5951 25.9443L20.6331 25.9841L20.6863 26L20.7547 25.9841L20.7927 25.9443C22.5481 23.5555 26.6136 21.2781 32.313 23.6669L32.3814 23.6908L32.5106 23.5555L32.4726 23.4599Z" fill="white"/>
<path d="M25.4904 10.8612C22.6483 10.8612 21.1361 13.1943 21.3261 14.9541L21.4553 15.0815L21.5769 15.0018C22.2228 13.4332 23.7426 11.5301 25.5056 11.116L25.6272 10.9886L25.4904 10.8612ZM15.9383 10.8612L15.8167 10.9886L15.9383 11.116C17.7089 11.5301 19.2439 13.4252 19.8671 15.0018L19.9734 15.0815L20.1026 14.9541C20.285 13.2023 18.7804 10.8612 15.9383 10.8612Z" fill="white"/>
</svg>
